<?xml version="1.0" encoding="utf-8"?>
<!-- Generator: Adobe Illustrator 19.0.0, SVG Export Plug-In . SVG Version: 6.00 Build 0)  -->
<svg version="1.1" id="Layer_1" xmlns="http://www.w3.org/2000/svg" xmlns:xlink="http://www.w3.org/1999/xlink" x="0px" y="0px"
	 viewBox="0 0 64 64" style="enable-background:new 0 0 64 64;" xml:space="preserve">
<style type="text/css">
	.st0{fill:#333333;}
</style>
<g id="XMLID_194_">
	<path id="XMLID_203_" class="st0" d="M28.8,52.9c-1.3,0-2.4,0-3.6,0c-2.9,0-5.8-0.1-8.7,0c-2.1,0.1-4.3-2-4.3-4.3
		c0.1-10.8,0-21.5,0-32.3c0-2,2-4.2,4.2-4.2c10.8,0,21.5,0,32.3,0c2.3,0,4.3,2.2,4.3,4.3c-0.1,10.7-0.1,21.4,0,32.1
		c0,2.3-2.2,4.4-4.3,4.3c-3.8-0.1-7.6,0-11.5,0c-0.3,0-0.6,0.1-1.1-0.3c0-4.3,0-8.8,0-13.4c1.7-0.4,3.3,0,4.9-0.3
		c0.8-1.9,0.6-4,1.2-6.1c-1-0.5-2-0.2-3-0.2c-1,0-1.9,0-3,0c-0.1-1.9-0.2-3.7,0-5.5c0.1-1.2,1.5-2.2,2.8-2.2c1.1,0,2.2,0,3.4,0
		c0.2-1.9,0.1-3.5,0.1-5.3c-2.6-0.4-5-0.8-7.5-0.2c-3.3,0.8-5,3.1-5.7,6.4C28.9,27.5,29,29.2,29,31c0,0.4,0,0.8-0.1,1.4
		c-1.8,0.3-3.5,0-5.3,0.2c-0.2,2.1-0.1,4.1-0.1,6.2c1.8,0.3,3.5,0,5.2,0.2C29,40.1,29.1,50.6,28.8,52.9z"/>
</g>
</svg>
