<?xml version="1.0" encoding="utf-8"?>
<!-- Generator: Adobe Illustrator 19.0.0, SVG Export Plug-In . SVG Version: 6.00 Build 0)  -->
<svg version="1.1" id="Layer_1" xmlns="http://www.w3.org/2000/svg" xmlns:xlink="http://www.w3.org/1999/xlink" x="0px" y="0px"
	 viewBox="-223 225 64 64" style="enable-background:new -223 225 64 64;" xml:space="preserve">
<style type="text/css">
	.st0{fill:#333333;}
</style>
<g id="XMLID_23_">
	<path id="XMLID_198_" class="st0" d="M-191.2,237.2c3,0,5,0.1,7.1,0c1.6-0.1,3.2,0.2,4.8,0.4c4.9,0.7,8.5,4.6,9,9.5
		c0.6,5.8,0.2,11.7,0.3,17.6c0,1.7-0.3,3.3-0.6,4.9c-0.8,4-4.8,7.6-9.2,8c-2.3,0.2-4.5,0.3-6.7,0.3c-3.5,0-7,0-10.5,0
		c-1.5,0-3-0.2-4.5-0.4c-4.7-0.7-8.5-4.8-8.9-9.7c-0.5-5.8-0.1-11.6-0.3-17.4c0-1.7,0.3-3.3,0.6-4.9c0.8-4.3,4.9-7.5,9.2-8
		C-197.3,237-193.8,237.3-191.2,237.2z M-173.9,257.6L-173.9,257.6c0-2.4,0-4.7,0-7.1c0-1.4-0.2-2.8-0.5-4.1c-0.7-2.8-2.5-4.4-5.3-5
		c-1.2-0.3-2.3-0.4-3.5-0.4c-4.7,0-9.4,0-14,0c-1.6,0-3.1,0.2-4.6,0.6c-1.3,0.4-2.4,1.1-3.2,2.2c-1.1,1.7-1.7,3.5-1.7,5.4
		c0,5.3,0,10.6,0,16c0,1.4,0.3,2.7,0.7,3.9c0.7,1.9,1.9,3.2,3.8,3.9c1.3,0.5,2.7,0.8,4.1,0.8c5.2,0,10.4,0,15.6,0
		c1.4,0,2.7-0.3,3.9-0.8c2.2-0.8,3.7-2.3,4.2-4.7c0.3-1.3,0.5-2.5,0.5-3.8C-173.9,262.4-173.9,260-173.9,257.6z"/>
	<path id="XMLID_195_" class="st0" d="M-190.3,247c6.2,0.3,10.5,4.8,10.4,10.6c0,6-4.8,10.4-10.5,10.4c-6,0-10.6-4.9-10.5-10.6
		C-200.7,251.4-195.9,247.1-190.3,247z M-190.3,264.2c3.9-0.3,6.6-2.8,6.6-6.7c-0.1-4.3-3-6.6-6.7-6.5c-4.1,0.1-6.5,2.7-6.5,6.6
		C-196.9,261.4-194.4,263.8-190.3,264.2z"/>
	<path id="XMLID_192_" class="st0" d="M-176.9,246.7c0,1.2-1.2,2.4-2.5,2.5c-1.5,0-2.5-1-2.5-2.5c0-1.3,1.2-2.5,2.4-2.5
		C-178.2,244.1-176.9,245.4-176.9,246.7z"/>
</g>
</svg>
