<?xml version="1.0" encoding="utf-8"?>
<!-- Generator: Adobe Illustrator 19.0.0, SVG Export Plug-In . SVG Version: 6.00 Build 0)  -->
<svg version="1.1" id="Layer_1" xmlns="http://www.w3.org/2000/svg" xmlns:xlink="http://www.w3.org/1999/xlink" x="0px" y="0px"
	 viewBox="0 0 64 64" style="enable-background:new 0 0 64 64;" xml:space="preserve">
<style type="text/css">
	.st0{fill:#333333;}
</style>
<g id="XMLID_54_">
	<path id="XMLID_190_" class="st0" d="M32.5,12.2c5.6,0,11.3,0,16.9,0c1.2,0,2,0.5,2.8,1.3c0.3,0.4,0.5,0.8,0.5,1.3c0,0.3,0,0.6,0,1
		c0,11.2,0,22.4,0,33.7c0,0.9,0,1.8-0.8,2.5c-0.7,0.7-1.4,1-2.4,1c-11.4,0-22.9,0-34.3,0c-2,0-3.2-1.2-3.2-3.2c0-11.5,0-23,0-34.5
		c0-1.9,1.2-3.1,3.1-3.1C20.9,12.2,26.7,12.2,32.5,12.2z M46.6,46.9c0.1-0.3,0.1-0.4,0.1-0.5c0-2.8,0-5.6,0-8.4c0-1.6,0-3.2-0.3-4.8
		c-0.7-3.7-2-5.2-5-5.7c-2.7-0.5-5.4-0.1-7.2,2.4c-0.1,0.1-0.2,0.2-0.5,0.1c-0.4-0.2-0.2-0.6-0.3-1c0-0.4,0.1-0.9-0.3-1.4
		c-1,0-2.1,0-3.2,0c-0.6,0-1.2-0.1-1.8,0.2c0,6.3,0,12.6,0,19c1.9,0.1,3.7,0.1,5.4,0c0.3-0.5,0.2-0.9,0.2-1.2c0-2.9,0-5.8,0-8.7
		c0-1,0.2-1.9,0.6-2.8c0.6-1.3,2.1-2.1,3.4-1.9c1.7,0.2,2.4,0.9,2.8,2.6c0.2,0.8,0.3,1.6,0.3,2.4c0,2.7,0,5.5,0,8.2
		c0,0.5-0.1,1,0.3,1.4C43,46.9,44.8,46.9,46.6,46.9z M24.1,47c0-6.5,0-12.8,0-19.2c-1.9-0.1-3.7-0.1-5.5,0c0,6.4,0,12.7,0,19
		c0.3,0.1,0.5,0.1,0.7,0.1C20.8,47,22.4,47,24.1,47z M21.2,24.8c1.9,0,3.3-1.3,3.3-3.1c0.1-1.9-1.3-3.4-3.3-3.4
		c-1.8,0-3.2,1.2-3.3,3.2C17.9,23.3,19.4,24.8,21.2,24.8z"/>
</g>
</svg>
